# Made in Blockbench 5.1.6
mtllib upgrades.mtl

o cube
v 9.625 2.125 0.6875
v 9.625 2.125 -0.6875
v 9.625 0.625 0.6875
v 9.625 0.625 -0.6875
v 8.625 2.125 -0.6875
v 8.625 2.125 0.6875
v 8.625 0.625 -0.6875
v 8.625 0.625 0.6875
vt 0.946 0.6375
vt 0.962 0.6375
vt 0.962 0.5625
vt 0.946 0.5625
vt 0.962 0.6375
vt 0.946 0.6375
vt 0.946 0.5625
vt 0.962 0.5625
vt 0.962 0.6625
vt 0.946 0.6625
vt 0.946 0.73125
vt 0.962 0.73125
vt 0.962 0.46875
vt 0.946 0.46875
vt 0.946 0.5375
vt 0.962 0.5375
vn 0 0 -1
vn 0 0 1
vn 0 1 0
vn 0 -1 0
usemtl m_3d17cead-4fb5-2c7e-3d69-e7e09566cc8a
f 4/4/1 7/3/1 5/2/1 2/1/1
f 8/8/2 3/7/2 1/6/2 6/5/2
f 6/12/3 1/11/3 2/10/3 5/9/3
f 7/16/4 4/15/4 3/14/4 8/13/4
o cube
v 9.75 2.25 0.8125
v 9.75 2.25 -0.8125
v 9.75 1.75 0.8125
v 9.75 1.75 -0.8125
v 9.25 2.25 -0.8125
v 9.25 2.25 0.8125
v 9.25 1.75 -0.8125
v 9.25 1.75 0.8125
vt 0 0.16874999999999996
vt 0.001 0.16874999999999996
vt 0.001 0.16562500000000002
vt 0 0.16562500000000002
vt 0 0.16874999999999996
vt 0.001 0.16874999999999996
vt 0.001 0.16562500000000002
vt 0 0.16562500000000002
vn -1 0 0
vn 0 -1 0
usemtl m_3d17cead-4fb5-2c7e-3d69-e7e09566cc8a
f 15/20/5 16/19/5 14/18/5 13/17/5
f 15/24/6 12/23/6 11/22/6 16/21/6
o cube
v 9.75 1 0.8125
v 9.75 1 -0.8125
v 9.75 0.5 0.8125
v 9.75 0.5 -0.8125
v 9.25 1 -0.8125
v 9.25 1 0.8125
v 9.25 0.5 -0.8125
v 9.25 0.5 0.8125
vt 0 0.16874999999999996
vt 0.001 0.16874999999999996
vt 0.001 0.16562500000000002
vt 0 0.16562500000000002
vt 0 0.16874999999999996
vt 0.001 0.16874999999999996
vt 0.001 0.16562500000000002
vt 0 0.16562500000000002
vn -1 0 0
vn 0 1 0
usemtl m_3d17cead-4fb5-2c7e-3d69-e7e09566cc8a
f 23/28/7 24/27/7 22/26/7 21/25/7
f 22/32/8 17/31/8 18/30/8 21/29/8
o cube
v 8.5 0.5 -0.8125
v 8.5 0.5 0.8125
v 8.5 2.25 -0.8125
v 8.5 2.25 0.8125
v 9.75 0.5 0.8125
v 9.75 0.5 -0.8125
v 9.75 2.25 0.8125
v 9.75 2.25 -0.8125
vt 0.062 0.16874999999999996
vt 0.067 0.16874999999999996
vt 0.067 0.14687499999999998
vt 0.062 0.14687499999999998
vt 0 0.16874999999999996
vt 0.001 0.16874999999999996
vt 0.001 0.16562500000000002
vt 0 0.16562500000000002
vt 0.06 0.16874999999999996
vt 0.065 0.16874999999999996
vt 0.065 0.14687499999999998
vt 0.06 0.14687499999999998
vt 0.066 0.16874999999999996
vt 0.067 0.16874999999999996
vt 0.067 0.14687499999999998
vt 0.066 0.14687499999999998
vt 0.06 0.15000000000000002
vt 0.065 0.15000000000000002
vt 0.065 0.14687499999999998
vt 0.06 0.14687499999999998
vt 0.06 0.16874999999999996
vt 0.065 0.16874999999999996
vt 0.065 0.16562500000000002
vt 0.06 0.16562500000000002
vn 0 0 -1
vn 1 0 0
vn 0 0 1
vn -1 0 0
vn 0 1 0
vn 0 -1 0
usemtl m_3d17cead-4fb5-2c7e-3d69-e7e09566cc8a
f 28/36/9 31/35/9 29/34/9 26/33/9
f 27/40/10 28/39/10 26/38/10 25/37/10
f 32/44/11 27/43/11 25/42/11 30/41/11
f 31/48/12 32/47/12 30/46/12 29/45/12
f 30/52/13 25/51/13 26/50/13 29/49/13
f 31/56/14 28/55/14 27/54/14 32/53/14
o cube
v 7.875 2.625 0.6875
v 7.875 2.625 -0.6875
v 7.875 0.125 0.6875
v 7.875 0.125 -0.6875
v 6.125 2.625 -0.6875
v 6.125 2.625 0.6875
v 6.125 0.125 -0.6875
v 6.125 0.125 0.6875
vt 0.64 0.93125
vt 0.668 0.93125
vt 0.668 0.80625
vt 0.64 0.80625
vt 0.668 0.93125
vt 0.64 0.93125
vt 0.64 0.80625
vt 0.668 0.80625
vt 0.668 0.93125
vt 0.64 0.93125
vt 0.64 1
vt 0.668 1
vt 0.668 0.7375
vt 0.64 0.7375
vt 0.64 0.80625
vt 0.668 0.80625
vn 0 0 -1
vn 0 0 1
vn 0 1 0
vn 0 -1 0
usemtl m_3d17cead-4fb5-2c7e-3d69-e7e09566cc8a
f 36/60/15 39/59/15 37/58/15 34/57/15
f 40/64/16 35/63/16 33/62/16 38/61/16
f 38/68/17 33/67/17 34/66/17 37/65/17
f 39/72/18 36/71/18 35/70/18 40/69/18
o cube
v 6 0 -0.8125
v 6 0 0.8125
v 6 2.75 -0.8125
v 6 2.75 0.8125
v 8 0 0.8125
v 8 0 -0.8125
v 8 2.75 0.8125
v 8 2.75 -0.8125
vt 0 0.16874999999999996
vt 0.001 0.16874999999999996
vt 0.001 0.16562500000000002
vt 0 0.16562500000000002
vt 0 0.16874999999999996
vt 0.001 0.16874999999999996
vt 0.001 0.16562500000000002
vt 0 0.16562500000000002
vt 0 0.16874999999999996
vt 0.001 0.16874999999999996
vt 0.001 0.16562500000000002
vt 0 0.16562500000000002
vt 0 0.16874999999999996
vt 0.001 0.16874999999999996
vt 0.001 0.16562500000000002
vt 0 0.16562500000000002
vt 0 0.16874999999999996
vt 0.001 0.16874999999999996
vt 0.001 0.16562500000000002
vt 0 0.16562500000000002
vt 0 0.16874999999999996
vt 0.001 0.16874999999999996
vt 0.001 0.16562500000000002
vt 0 0.16562500000000002
vn 0 0 -1
vn 1 0 0
vn 0 0 1
vn -1 0 0
vn 0 1 0
vn 0 -1 0
usemtl m_3d17cead-4fb5-2c7e-3d69-e7e09566cc8a
f 44/76/19 47/75/19 45/74/19 42/73/19
f 43/80/20 44/79/20 42/78/20 41/77/20
f 48/84/21 43/83/21 41/82/21 46/81/21
f 47/88/22 48/87/22 46/86/22 45/85/22
f 46/92/23 41/91/23 42/90/23 45/89/23
f 47/96/24 44/95/24 43/94/24 48/93/24
o cube
v 5.875 2.625 0.6875
v 5.875 2.625 -0.6875
v 5.875 0.125 0.6875
v 5.875 0.125 -0.6875
v 4.125 2.625 -0.6875
v 4.125 2.625 0.6875
v 4.125 0.125 -0.6875
v 4.125 0.125 0.6875
vt 0.486 0.93125
vt 0.514 0.93125
vt 0.514 0.80625
vt 0.486 0.80625
vt 0.514 0.93125
vt 0.486 0.93125
vt 0.486 0.80625
vt 0.514 0.80625
vt 0.514 0.93125
vt 0.486 0.93125
vt 0.486 1
vt 0.514 1
vt 0.514 0.7375
vt 0.486 0.7375
vt 0.486 0.80625
vt 0.514 0.80625
vn 0 0 -1
vn 0 0 1
vn 0 1 0
vn 0 -1 0
usemtl m_3d17cead-4fb5-2c7e-3d69-e7e09566cc8a
f 52/100/25 55/99/25 53/98/25 50/97/25
f 56/104/26 51/103/26 49/102/26 54/101/26
f 54/108/27 49/107/27 50/106/27 53/105/27
f 55/112/28 52/111/28 51/110/28 56/109/28
o cube
v 5 1 0.8125
v 5 1 -0.8125
v 5 0 0.8125
v 5 0 -0.8125
v 4 1 -0.8125
v 4 1 0.8125
v 4 0 -0.8125
v 4 0 0.8125
vt 0 0.16874999999999996
vt 0.001 0.16874999999999996
vt 0.001 0.16562500000000002
vt 0 0.16562500000000002
vt 0 0.16874999999999996
vt 0.001 0.16874999999999996
vt 0.001 0.16562500000000002
vt 0 0.16562500000000002
vn 1 0 0
vn 0 1 0
usemtl m_3d17cead-4fb5-2c7e-3d69-e7e09566cc8a
f 59/116/29 60/115/29 58/114/29 57/113/29
f 62/120/30 57/119/30 58/118/30 61/117/30
o cube
v 4 0 -0.8125
v 4 0 0.8125
v 4 2.75 -0.8125
v 4 2.75 0.8125
v 6 0 0.8125
v 6 0 -0.8125
v 6 2.75 0.8125
v 6 2.75 -0.8125
vt 0.018 0.09999999999999998
vt 0.02 0.09999999999999998
vt 0.02 0.13437500000000002
vt 0.018 0.13437500000000002
vt 0.018 0.09999999999999998
vt 0.019 0.09999999999999998
vt 0.019 0.13437500000000002
vt 0.018 0.13437500000000002
vt 0.02 0.09999999999999998
vt 0.018 0.09999999999999998
vt 0.018 0.13437500000000002
vt 0.02 0.13437500000000002
vt 0 0.16874999999999996
vt 0.001 0.16874999999999996
vt 0.001 0.16562500000000002
vt 0 0.16562500000000002
vt 0.001 0.16562500000000002
vt 0.003 0.16562500000000002
vt 0.003 0.16249999999999998
vt 0.001 0.16249999999999998
vt 0 0.16874999999999996
vt 0.001 0.16874999999999996
vt 0.001 0.16562500000000002
vt 0 0.16562500000000002
vn 0 0 -1
vn 1 0 0
vn 0 0 1
vn -1 0 0
vn 0 1 0
vn 0 -1 0
usemtl m_3d17cead-4fb5-2c7e-3d69-e7e09566cc8a
f 68/124/31 71/123/31 69/122/31 66/121/31
f 67/128/32 68/127/32 66/126/32 65/125/32
f 72/132/33 67/131/33 65/130/33 70/129/33
f 71/136/34 72/135/34 70/134/34 69/133/34
f 70/140/35 65/139/35 66/138/35 69/137/35
f 71/144/36 68/143/36 67/142/36 72/141/36
o cube
v 3.875 2.625 0.6875
v 3.875 2.625 -0.6875
v 3.875 0.125 0.6875
v 3.875 0.125 -0.6875
v 2.125 2.625 -0.6875
v 2.125 2.625 0.6875
v 2.125 0.125 -0.6875
v 2.125 0.125 0.6875
vt 0.21 0.93125
vt 0.238 0.93125
vt 0.238 0.80625
vt 0.21 0.80625
vt 0.238 0.93125
vt 0.21 0.93125
vt 0.21 0.80625
vt 0.238 0.80625
vt 0.238 0.93125
vt 0.21 0.93125
vt 0.21 1
vt 0.238 1
vt 0.238 0.7375
vt 0.21 0.7375
vt 0.21 0.80625
vt 0.238 0.80625
vn 0 0 -1
vn 0 0 1
vn 0 1 0
vn 0 -1 0
usemtl m_3d17cead-4fb5-2c7e-3d69-e7e09566cc8a
f 76/148/37 79/147/37 77/146/37 74/145/37
f 80/152/38 75/151/38 73/150/38 78/149/38
f 78/156/39 73/155/39 74/154/39 77/153/39
f 79/160/40 76/159/40 75/158/40 80/157/40
o cube
v 3 2 0.8125
v 3 2 -0.8125
v 3 1.75 0.8125
v 3 1.75 -0.8125
v 2 2 -0.8125
v 2 2 0.8125
v 2 1.75 -0.8125
v 2 1.75 0.8125
vt 0 0.16874999999999996
vt 0.001 0.16874999999999996
vt 0.001 0.16562500000000002
vt 0 0.16562500000000002
vt 0 0.16874999999999996
vt 0.001 0.16874999999999996
vt 0.001 0.16562500000000002
vt 0 0.16562500000000002
vt 0 0.16874999999999996
vt 0.001 0.16874999999999996
vt 0.001 0.16562500000000002
vt 0 0.16562500000000002
vn 1 0 0
vn 0 1 0
vn 0 -1 0
usemtl m_3d17cead-4fb5-2c7e-3d69-e7e09566cc8a
f 83/164/41 84/163/41 82/162/41 81/161/41
f 86/168/42 81/167/42 82/166/42 85/165/42
f 87/172/43 84/171/43 83/170/43 88/169/43
o cube
v 2 0 -0.8125
v 2 0 0.8125
v 2 2.75 -0.8125
v 2 2.75 0.8125
v 4 0 0.8125
v 4 0 -0.8125
v 4 2.75 0.8125
v 4 2.75 -0.8125
vt 0.006 0.13437500000000002
vt 0.008 0.13437500000000002
vt 0.008 0.16874999999999996
vt 0.006 0.16874999999999996
vt 0.007 0.13437500000000002
vt 0.006 0.13437500000000002
vt 0.006 0.16874999999999996
vt 0.007 0.16874999999999996
vt 0.008 0.13437500000000002
vt 0.006 0.13437500000000002
vt 0.006 0.16874999999999996
vt 0.008 0.16874999999999996
vt 0 0.16874999999999996
vt 0.001 0.16874999999999996
vt 0.001 0.16562500000000002
vt 0 0.16562500000000002
vt 0 0.16874999999999996
vt 0.001 0.16874999999999996
vt 0.001 0.16562500000000002
vt 0 0.16562500000000002
vt 0 0.16874999999999996
vt 0.001 0.16874999999999996
vt 0.001 0.16562500000000002
vt 0 0.16562500000000002
vn 0 0 -1
vn 1 0 0
vn 0 0 1
vn -1 0 0
vn 0 1 0
vn 0 -1 0
usemtl m_3d17cead-4fb5-2c7e-3d69-e7e09566cc8a
f 92/176/44 95/175/44 93/174/44 90/173/44
f 91/180/45 92/179/45 90/178/45 89/177/45
f 96/184/46 91/183/46 89/182/46 94/181/46
f 95/188/47 96/187/47 94/186/47 93/185/47
f 94/192/48 89/191/48 90/190/48 93/189/48
f 95/196/49 92/195/49 91/194/49 96/193/49
o cube
v 1.875 2.625 0.6875
v 1.875 2.625 -0.6875
v 1.875 0.125 0.6875
v 1.875 0.125 -0.6875
v 0.125 2.625 -0.6875
v 0.125 2.625 0.6875
v 0.125 0.125 -0.6875
v 0.125 0.125 0.6875
vt 0.55 0.93125
vt 0.578 0.93125
vt 0.578 0.80625
vt 0.55 0.80625
vt 0.578 0.93125
vt 0.55 0.93125
vt 0.55 0.80625
vt 0.578 0.80625
vt 0.578 0.93125
vt 0.55 0.93125
vt 0.55 1
vt 0.578 1
vt 0.578 0.7375
vt 0.55 0.7375
vt 0.55 0.80625
vt 0.578 0.80625
vn 0 0 -1
vn 0 0 1
vn 0 1 0
vn 0 -1 0
usemtl m_3d17cead-4fb5-2c7e-3d69-e7e09566cc8a
f 100/200/50 103/199/50 101/198/50 98/197/50
f 104/204/51 99/203/51 97/202/51 102/201/51
f 102/208/52 97/207/52 98/206/52 101/205/52
f 103/212/53 100/211/53 99/210/53 104/209/53
o cube
v 0 0 -0.8125
v 0 0 0.8125
v 0 2.75 -0.8125
v 0 2.75 0.8125
v 2 0 0.8125
v 2 0 -0.8125
v 2 2.75 0.8125
v 2 2.75 -0.8125
vt 0 0.16874999999999996
vt 0.001 0.16874999999999996
vt 0.001 0.16562500000000002
vt 0 0.16562500000000002
vt 0 0.16874999999999996
vt 0.001 0.16874999999999996
vt 0.001 0.16562500000000002
vt 0 0.16562500000000002
vt 0 0.16874999999999996
vt 0.001 0.16874999999999996
vt 0.001 0.16562500000000002
vt 0 0.16562500000000002
vt 0 0.16874999999999996
vt 0.001 0.16874999999999996
vt 0.001 0.16562500000000002
vt 0 0.16562500000000002
vt 0 0.16874999999999996
vt 0.001 0.16874999999999996
vt 0.001 0.16562500000000002
vt 0 0.16562500000000002
vt 0 0.16874999999999996
vt 0.001 0.16874999999999996
vt 0.001 0.16562500000000002
vt 0 0.16562500000000002
vn 0 0 -1
vn 1 0 0
vn 0 0 1
vn -1 0 0
vn 0 1 0
vn 0 -1 0
usemtl m_3d17cead-4fb5-2c7e-3d69-e7e09566cc8a
f 108/216/54 111/215/54 109/214/54 106/213/54
f 107/220/55 108/219/55 106/218/55 105/217/55
f 112/224/56 107/223/56 105/222/56 110/221/56
f 111/228/57 112/227/57 110/226/57 109/225/57
f 110/232/58 105/231/58 106/230/58 109/229/58
f 111/236/59 108/235/59 107/234/59 112/233/59
o cube
v -0.125 2.625 0.6875
v -0.125 2.625 -0.6875
v -0.125 0.125 0.6875
v -0.125 0.125 -0.6875
v -1.875 2.625 -0.6875
v -1.875 2.625 0.6875
v -1.875 0.125 -0.6875
v -1.875 0.125 0.6875
vt 0 0.93125
vt 0.028 0.93125
vt 0.028 0.80625
vt 0 0.80625
vt 0.028 0.93125
vt 0 0.93125
vt 0 0.80625
vt 0.028 0.80625
vt 0.028 0.93125
vt 0 0.93125
vt 0 1
vt 0.028 1
vt 0.028 0.7375
vt 0 0.7375
vt 0 0.80625
vt 0.028 0.80625
vn 0 0 -1
vn 0 0 1
vn 0 1 0
vn 0 -1 0
usemtl m_3d17cead-4fb5-2c7e-3d69-e7e09566cc8a
f 116/240/60 119/239/60 117/238/60 114/237/60
f 120/244/61 115/243/61 113/242/61 118/241/61
f 118/248/62 113/247/62 114/246/62 117/245/62
f 119/252/63 116/251/63 115/250/63 120/249/63
o cube
v -2 0 -0.8125
v -2 0 0.8125
v -2 2.75 -0.8125
v -2 2.75 0.8125
v 0 0 0.8125
v 0 0 -0.8125
v 0 2.75 0.8125
v 0 2.75 -0.8125
vt 0 0.16874999999999996
vt 0.001 0.16874999999999996
vt 0.001 0.16562500000000002
vt 0 0.16562500000000002
vt 0 0.16874999999999996
vt 0.001 0.16874999999999996
vt 0.001 0.16562500000000002
vt 0 0.16562500000000002
vt 0 0.16874999999999996
vt 0.001 0.16874999999999996
vt 0.001 0.16562500000000002
vt 0 0.16562500000000002
vt 0 0.16874999999999996
vt 0.001 0.16874999999999996
vt 0.001 0.16562500000000002
vt 0 0.16562500000000002
vt 0 0.16874999999999996
vt 0.001 0.16874999999999996
vt 0.001 0.16562500000000002
vt 0 0.16562500000000002
vt 0 0.16874999999999996
vt 0.001 0.16874999999999996
vt 0.001 0.16562500000000002
vt 0 0.16562500000000002
vn 0 0 -1
vn 1 0 0
vn 0 0 1
vn -1 0 0
vn 0 1 0
vn 0 -1 0
usemtl m_3d17cead-4fb5-2c7e-3d69-e7e09566cc8a
f 124/256/64 127/255/64 125/254/64 122/253/64
f 123/260/65 124/259/65 122/258/65 121/257/65
f 128/264/66 123/263/66 121/262/66 126/261/66
f 127/268/67 128/267/67 126/266/67 125/265/67
f 126/272/68 121/271/68 122/270/68 125/269/68
f 127/276/69 124/275/69 123/274/69 128/273/69
o cube
v -2.125 2.625 0.6875
v -2.125 2.625 -0.6875
v -2.125 0.125 0.6875
v -2.125 0.125 -0.6875
v -3.875 2.625 -0.6875
v -3.875 2.625 0.6875
v -3.875 0.125 -0.6875
v -3.875 0.125 0.6875
vt 0.12 0.93125
vt 0.148 0.93125
vt 0.148 0.80625
vt 0.12 0.80625
vt 0.148 0.93125
vt 0.12 0.93125
vt 0.12 0.80625
vt 0.148 0.80625
vt 0.148 0.93125
vt 0.12 0.93125
vt 0.12 1
vt 0.148 1
vt 0.148 0.7375
vt 0.12 0.7375
vt 0.12 0.80625
vt 0.148 0.80625
vn 0 0 -1
vn 0 0 1
vn 0 1 0
vn 0 -1 0
usemtl m_3d17cead-4fb5-2c7e-3d69-e7e09566cc8a
f 132/280/70 135/279/70 133/278/70 130/277/70
f 136/284/71 131/283/71 129/282/71 134/281/71
f 134/288/72 129/287/72 130/286/72 133/285/72
f 135/292/73 132/291/73 131/290/73 136/289/73
o cube
v -4 0.25 -0.8125
v -4 0.25 0.8125
v -4 2.5 -0.8125
v -4 2.5 0.8125
v -3.75 0.25 0.8125
v -3.75 0.25 -0.8125
v -3.75 2.5 0.8125
v -3.75 2.5 -0.8125
vt 0 0.16874999999999996
vt 0.001 0.16874999999999996
vt 0.001 0.16562500000000002
vt 0 0.16562500000000002
vt 0 0.16874999999999996
vt 0.001 0.16874999999999996
vt 0.001 0.16562500000000002
vt 0 0.16562500000000002
vt 0 0.16874999999999996
vt 0.001 0.16874999999999996
vt 0.001 0.16562500000000002
vt 0 0.16562500000000002
vt 0 0.16874999999999996
vt 0.001 0.16874999999999996
vt 0.001 0.16562500000000002
vt 0 0.16562500000000002
vt 0 0.16874999999999996
vt 0.001 0.16874999999999996
vt 0.001 0.16562500000000002
vt 0 0.16562500000000002
vn 0 0 -1
vn 1 0 0
vn 0 0 1
vn 0 1 0
vn 0 -1 0
usemtl m_3d17cead-4fb5-2c7e-3d69-e7e09566cc8a
f 140/296/74 143/295/74 141/294/74 138/293/74
f 139/300/75 140/299/75 138/298/75 137/297/75
f 144/304/76 139/303/76 137/302/76 142/301/76
f 142/308/77 137/307/77 138/306/77 141/305/77
f 143/312/78 140/311/78 139/310/78 144/309/78
o cube
v -3.75 0 -0.8125
v -3.75 0 0.8125
v -3.75 2.75 -0.8125
v -3.75 2.75 0.8125
v -2 0 0.8125
v -2 0 -0.8125
v -2 2.75 0.8125
v -2 2.75 -0.8125
vt 0 0.16874999999999996
vt 0.001 0.16874999999999996
vt 0.001 0.16562500000000002
vt 0 0.16562500000000002
vt 0.002 0.16874999999999996
vt 0.003 0.16874999999999996
vt 0.003 0.13437500000000002
vt 0.002 0.13437500000000002
vt 0 0.16874999999999996
vt 0.001 0.16874999999999996
vt 0.001 0.16562500000000002
vt 0 0.16562500000000002
vt 0 0.16874999999999996
vt 0.001 0.16874999999999996
vt 0.001 0.16562500000000002
vt 0 0.16562500000000002
vt 0 0.16874999999999996
vt 0.001 0.16874999999999996
vt 0.001 0.16562500000000002
vt 0 0.16562500000000002
vt 0 0.16874999999999996
vt 0.001 0.16874999999999996
vt 0.001 0.16562500000000002
vt 0 0.16562500000000002
vn 0 0 -1
vn 1 0 0
vn 0 0 1
vn -1 0 0
vn 0 1 0
vn 0 -1 0
usemtl m_3d17cead-4fb5-2c7e-3d69-e7e09566cc8a
f 148/316/79 151/315/79 149/314/79 146/313/79
f 147/320/80 148/319/80 146/318/80 145/317/80
f 152/324/81 147/323/81 145/322/81 150/321/81
f 151/328/82 152/327/82 150/326/82 149/325/82
f 150/332/83 145/331/83 146/330/83 149/329/83
f 151/336/84 148/335/84 147/334/84 152/333/84
o cube
v -4.125 2.625 0.6875
v -4.125 2.625 -0.6875
v -4.125 0.125 0.6875
v -4.125 0.125 -0.6875
v -5.875 2.625 -0.6875
v -5.875 2.625 0.6875
v -5.875 0.125 -0.6875
v -5.875 0.125 0.6875
vt 0.15 0.93125
vt 0.178 0.93125
vt 0.178 0.80625
vt 0.15 0.80625
vt 0.178 0.93125
vt 0.15 0.93125
vt 0.15 0.80625
vt 0.178 0.80625
vt 0.178 0.93125
vt 0.15 0.93125
vt 0.15 1
vt 0.178 1
vt 0.178 0.7375
vt 0.15 0.7375
vt 0.15 0.80625
vt 0.178 0.80625
vn 0 0 -1
vn 0 0 1
vn 0 1 0
vn 0 -1 0
usemtl m_3d17cead-4fb5-2c7e-3d69-e7e09566cc8a
f 156/340/85 159/339/85 157/338/85 154/337/85
f 160/344/86 155/343/86 153/342/86 158/341/86
f 158/348/87 153/347/87 154/346/87 157/345/87
f 159/352/88 156/351/88 155/350/88 160/349/88
o cube
v -5 2 0.8125
v -5 2 -0.8125
v -5 1.75 0.8125
v -5 1.75 -0.8125
v -6 2 -0.8125
v -6 2 0.8125
v -6 1.75 -0.8125
v -6 1.75 0.8125
vt 0 0.16874999999999996
vt 0.001 0.16874999999999996
vt 0.001 0.16562500000000002
vt 0 0.16562500000000002
vt 0 0.16874999999999996
vt 0.001 0.16874999999999996
vt 0.001 0.16562500000000002
vt 0 0.16562500000000002
vt 0 0.16874999999999996
vt 0.001 0.16874999999999996
vt 0.001 0.16562500000000002
vt 0 0.16562500000000002
vn 1 0 0
vn 0 1 0
vn 0 -1 0
usemtl m_3d17cead-4fb5-2c7e-3d69-e7e09566cc8a
f 163/356/89 164/355/89 162/354/89 161/353/89
f 166/360/90 161/359/90 162/358/90 165/357/90
f 167/364/91 164/363/91 163/362/91 168/361/91
o cube
v -5 1 0.8125
v -5 1 -0.8125
v -5 0.75 0.8125
v -5 0.75 -0.8125
v -6 1 -0.8125
v -6 1 0.8125
v -6 0.75 -0.8125
v -6 0.75 0.8125
vt 0 0.16874999999999996
vt 0.001 0.16874999999999996
vt 0.001 0.16562500000000002
vt 0 0.16562500000000002
vt 0 0.16874999999999996
vt 0.001 0.16874999999999996
vt 0.001 0.16562500000000002
vt 0 0.16562500000000002
vt 0 0.16874999999999996
vt 0.001 0.16874999999999996
vt 0.001 0.16562500000000002
vt 0 0.16562500000000002
vn 1 0 0
vn 0 1 0
vn 0 -1 0
usemtl m_3d17cead-4fb5-2c7e-3d69-e7e09566cc8a
f 171/368/92 172/367/92 170/366/92 169/365/92
f 174/372/93 169/371/93 170/370/93 173/369/93
f 175/376/94 172/375/94 171/374/94 176/373/94
o cube
v -6 0 -0.8125
v -6 0 0.8125
v -6 2.75 -0.8125
v -6 2.75 0.8125
v -4 0 0.8125
v -4 0 -0.8125
v -4 2.75 0.8125
v -4 2.75 -0.8125
vt 0.003 0.16874999999999996
vt 0.005 0.16874999999999996
vt 0.005 0.13437500000000002
vt 0.003 0.13437500000000002
vt 0.004 0.16874999999999996
vt 0.003 0.16874999999999996
vt 0.003 0.13437500000000002
vt 0.004 0.13437500000000002
vt 0.005 0.16874999999999996
vt 0.003 0.16874999999999996
vt 0.003 0.13437500000000002
vt 0.005 0.13437500000000002
vt 0 0.16874999999999996
vt 0.001 0.16874999999999996
vt 0.001 0.16562500000000002
vt 0 0.16562500000000002
vt 0 0.16874999999999996
vt 0.001 0.16874999999999996
vt 0.001 0.16562500000000002
vt 0 0.16562500000000002
vt 0 0.16874999999999996
vt 0.001 0.16874999999999996
vt 0.001 0.16562500000000002
vt 0 0.16562500000000002
vn 0 0 -1
vn 1 0 0
vn 0 0 1
vn -1 0 0
vn 0 1 0
vn 0 -1 0
usemtl m_3d17cead-4fb5-2c7e-3d69-e7e09566cc8a
f 180/380/95 183/379/95 181/378/95 178/377/95
f 179/384/96 180/383/96 178/382/96 177/381/96
f 184/388/97 179/387/97 177/386/97 182/385/97
f 183/392/98 184/391/98 182/390/98 181/389/98
f 182/396/99 177/395/99 178/394/99 181/393/99
f 183/400/100 180/399/100 179/398/100 184/397/100
o cube
v -6.125 2.625 0.6875
v -6.125 2.625 -0.6875
v -6.125 0.125 0.6875
v -6.125 0.125 -0.6875
v -7.875 2.625 -0.6875
v -7.875 2.625 0.6875
v -7.875 0.125 -0.6875
v -7.875 0.125 0.6875
vt 0.58 0.93125
vt 0.608 0.93125
vt 0.608 0.80625
vt 0.58 0.80625
vt 0.608 0.93125
vt 0.58 0.93125
vt 0.58 0.80625
vt 0.608 0.80625
vt 0.608 0.93125
vt 0.58 0.93125
vt 0.58 1
vt 0.608 1
vt 0.608 0.7375
vt 0.58 0.7375
vt 0.58 0.80625
vt 0.608 0.80625
vn 0 0 -1
vn 0 0 1
vn 0 1 0
vn 0 -1 0
usemtl m_3d17cead-4fb5-2c7e-3d69-e7e09566cc8a
f 188/404/101 191/403/101 189/402/101 186/401/101
f 192/408/102 187/407/102 185/406/102 190/405/102
f 190/412/103 185/411/103 186/410/103 189/409/103
f 191/416/104 188/415/104 187/414/104 192/413/104
o cube
v -6 1 0.8125
v -6 1 -0.8125
v -6 0.75 0.8125
v -6 0.75 -0.8125
v -7 1 -0.8125
v -7 1 0.8125
v -7 0.75 -0.8125
v -7 0.75 0.8125
vt 0 0.16874999999999996
vt 0.001 0.16874999999999996
vt 0.001 0.16562500000000002
vt 0 0.16562500000000002
vt 0 0.16874999999999996
vt 0.001 0.16874999999999996
vt 0.001 0.16562500000000002
vt 0 0.16562500000000002
vt 0 0.16874999999999996
vt 0.001 0.16874999999999996
vt 0.001 0.16562500000000002
vt 0 0.16562500000000002
vn -1 0 0
vn 0 1 0
vn 0 -1 0
usemtl m_3d17cead-4fb5-2c7e-3d69-e7e09566cc8a
f 199/420/105 200/419/105 198/418/105 197/417/105
f 198/424/106 193/423/106 194/422/106 197/421/106
f 199/428/107 196/427/107 195/426/107 200/425/107
o cube
v -7 2 0.8125
v -7 2 -0.8125
v -7 1.75 0.8125
v -7 1.75 -0.8125
v -8 2 -0.8125
v -8 2 0.8125
v -8 1.75 -0.8125
v -8 1.75 0.8125
vt 0 0.16874999999999996
vt 0.001 0.16874999999999996
vt 0.001 0.16562500000000002
vt 0 0.16562500000000002
vt 0 0.16874999999999996
vt 0.001 0.16874999999999996
vt 0.001 0.16562500000000002
vt 0 0.16562500000000002
vt 0 0.16874999999999996
vt 0.001 0.16874999999999996
vt 0.001 0.16562500000000002
vt 0 0.16562500000000002
vn 1 0 0
vn 0 1 0
vn 0 -1 0
usemtl m_3d17cead-4fb5-2c7e-3d69-e7e09566cc8a
f 203/432/108 204/431/108 202/430/108 201/429/108
f 206/436/109 201/435/109 202/434/109 205/433/109
f 207/440/110 204/439/110 203/438/110 208/437/110
o cube
v -8 0 -0.8125
v -8 0 0.8125
v -8 2.75 -0.8125
v -8 2.75 0.8125
v -6 0 0.8125
v -6 0 -0.8125
v -6 2.75 0.8125
v -6 2.75 -0.8125
vt 0 0.13437500000000002
vt 0.002 0.13437500000000002
vt 0.002 0.09999999999999998
vt 0 0.09999999999999998
vt 0 0.13437500000000002
vt 0.001 0.13437500000000002
vt 0.001 0.09999999999999998
vt 0 0.09999999999999998
vt 0.002 0.13437500000000002
vt 0 0.13437500000000002
vt 0 0.09999999999999998
vt 0.002 0.09999999999999998
vt 0.001 0.13437500000000002
vt 0.002 0.13437500000000002
vt 0.002 0.09999999999999998
vt 0.001 0.09999999999999998
vt 0 0.16874999999999996
vt 0.001 0.16874999999999996
vt 0.001 0.16562500000000002
vt 0 0.16562500000000002
vt 0 0.16874999999999996
vt 0.001 0.16874999999999996
vt 0.001 0.16562500000000002
vt 0 0.16562500000000002
vn 0 0 -1
vn 1 0 0
vn 0 0 1
vn -1 0 0
vn 0 1 0
vn 0 -1 0
usemtl m_3d17cead-4fb5-2c7e-3d69-e7e09566cc8a
f 212/444/111 215/443/111 213/442/111 210/441/111
f 211/448/112 212/447/112 210/446/112 209/445/112
f 216/452/113 211/451/113 209/450/113 214/449/113
f 215/456/114 216/455/114 214/454/114 213/453/114
f 214/460/115 209/459/115 210/458/115 213/457/115
f 215/464/116 212/463/116 211/462/116 216/461/116
o cube
v -8.625 2.125 0.6875
v -8.625 2.125 -0.6875
v -8.625 0.625 0.6875
v -8.625 0.625 -0.6875
v -9.625 2.125 -0.6875
v -9.625 2.125 0.6875
v -9.625 0.625 -0.6875
v -9.625 0.625 0.6875
vt 0.964 0.6375
vt 0.98 0.6375
vt 0.98 0.5625
vt 0.964 0.5625
vt 0.98 0.6375
vt 0.964 0.6375
vt 0.964 0.5625
vt 0.98 0.5625
vt 0.98 0.6625
vt 0.964 0.6625
vt 0.964 0.73125
vt 0.98 0.73125
vt 0.98 0.46875
vt 0.964 0.46875
vt 0.964 0.5375
vt 0.98 0.5375
vn 0 0 -1
vn 0 0 1
vn 0 1 0
vn 0 -1 0
usemtl m_3d17cead-4fb5-2c7e-3d69-e7e09566cc8a
f 220/468/117 223/467/117 221/466/117 218/465/117
f 224/472/118 219/471/118 217/470/118 222/469/118
f 222/476/119 217/475/119 218/474/119 221/473/119
f 223/480/120 220/479/120 219/478/120 224/477/120
o cube
v -9.25 2.25 0.8125
v -9.25 2.25 -0.8125
v -9.25 1.75 0.8125
v -9.25 1.75 -0.8125
v -9.75 2.25 -0.8125
v -9.75 2.25 0.8125
v -9.75 1.75 -0.8125
v -9.75 1.75 0.8125
vt 0 0.16874999999999996
vt 0.001 0.16874999999999996
vt 0.001 0.16562500000000002
vt 0 0.16562500000000002
vt 0 0.16874999999999996
vt 0.001 0.16874999999999996
vt 0.001 0.16562500000000002
vt 0 0.16562500000000002
vn 1 0 0
vn 0 -1 0
usemtl m_3d17cead-4fb5-2c7e-3d69-e7e09566cc8a
f 227/484/121 228/483/121 226/482/121 225/481/121
f 231/488/122 228/487/122 227/486/122 232/485/122
o cube
v -9.25 1 0.8125
v -9.25 1 -0.8125
v -9.25 0.5 0.8125
v -9.25 0.5 -0.8125
v -9.75 1 -0.8125
v -9.75 1 0.8125
v -9.75 0.5 -0.8125
v -9.75 0.5 0.8125
vt 0 0.16874999999999996
vt 0.001 0.16874999999999996
vt 0.001 0.16562500000000002
vt 0 0.16562500000000002
vt 0 0.16874999999999996
vt 0.001 0.16874999999999996
vt 0.001 0.16562500000000002
vt 0 0.16562500000000002
vn 1 0 0
vn 0 1 0
usemtl m_3d17cead-4fb5-2c7e-3d69-e7e09566cc8a
f 235/492/123 236/491/123 234/490/123 233/489/123
f 238/496/124 233/495/124 234/494/124 237/493/124
o cube
v -9.75 0.5 -0.8125
v -9.75 0.5 0.8125
v -9.75 2.25 -0.8125
v -9.75 2.25 0.8125
v -8.5 0.5 0.8125
v -8.5 0.5 -0.8125
v -8.5 2.25 0.8125
v -8.5 2.25 -0.8125
vt 0.06 0.16874999999999996
vt 0.065 0.16874999999999996
vt 0.065 0.14687499999999998
vt 0.06 0.14687499999999998
vt 0.066 0.16874999999999996
vt 0.067 0.16874999999999996
vt 0.067 0.14687499999999998
vt 0.066 0.14687499999999998
vt 0.062 0.16874999999999996
vt 0.067 0.16874999999999996
vt 0.067 0.14687499999999998
vt 0.062 0.14687499999999998
vt 0 0.16874999999999996
vt 0.001 0.16874999999999996
vt 0.001 0.16562500000000002
vt 0 0.16562500000000002
vt 0.062 0.15000000000000002
vt 0.067 0.15000000000000002
vt 0.067 0.14687499999999998
vt 0.062 0.14687499999999998
vt 0.062 0.16874999999999996
vt 0.067 0.16874999999999996
vt 0.067 0.16562500000000002
vt 0.062 0.16562500000000002
vn 0 0 -1
vn 1 0 0
vn 0 0 1
vn -1 0 0
vn 0 1 0
vn 0 -1 0
usemtl m_3d17cead-4fb5-2c7e-3d69-e7e09566cc8a
f 244/500/125 247/499/125 245/498/125 242/497/125
f 243/504/126 244/503/126 242/502/126 241/501/126
f 248/508/127 243/507/127 241/506/127 246/505/127
f 247/512/128 248/511/128 246/510/128 245/509/128
f 246/516/129 241/515/129 242/514/129 245/513/129
f 247/520/130 244/519/130 243/518/130 248/517/130