# Made in Blockbench 5.1.6
mtllib gift.mtl

o cube
v -0.003624830202400453 0.4616572582798629 0.299410800850352
v 0.23606681297522064 0.32356011346917535 0.15403767821089032
v -0.20209478069512402 0.3304892443320464 0.0967759547147446
v 0.03759686248249708 0.19239209952135888 -0.04859716792471713
v 0.26459478069512404 0.5713107556724226 -0.03427595471474455
v 0.02490313751750292 0.7094079004831102 0.11109716792471716
v 0.06612483020240045 0.4401427417246061 -0.236910800850352
v -0.17356681297522064 0.5782398865352937 -0.09153767821089026
vt 0.15625 0.84375
vt 0.3125 0.84375
vt 0.3125 0.6875
vt 0.15625 0.6875
vt 0 0.84375
vt 0.15625 0.84375
vt 0.15625 0.6875
vt 0 0.6875
vt 0.46875 0.84375
vt 0.625 0.84375
vt 0.625 0.6875
vt 0.46875 0.6875
vt 0.3125 0.84375
vt 0.46875 0.84375
vt 0.46875 0.6875
vt 0.3125 0.6875
vt 0.3125 0.84375
vt 0.15625 0.84375
vt 0.15625 1
vt 0.3125 1
vt 0.46875 1
vt 0.3125 1
vt 0.3125 0.84375
vt 0.46875 0.84375
vn 0.7670132581683875 -0.44191086339420016 -0.4651939924462776
vn -0.09128949670369091 -0.7928020550503911 0.6026036253620315
vn -0.7670132581683875 0.44191086339420016 0.4651939924462776
vn 0.09128949670369091 0.7928020550503911 -0.6026036253620315
vn 0.6351038415767153 0.41973764463301283 0.6484315076339436
vn -0.6351038415767153 -0.41973764463301283 -0.6484315076339436
usemtl m_eb1e69b0-368d-9ba3-4501-d455ac358d73
f 4/4/1 7/3/1 5/2/1 2/1/1
f 3/8/2 4/7/2 2/6/2 1/5/2
f 8/12/3 3/11/3 1/10/3 6/9/3
f 7/16/4 8/15/4 6/14/4 5/13/4
f 6/20/5 1/19/5 2/18/5 5/17/5
f 7/24/6 4/23/6 3/22/6 8/21/6